<?xml version="1.0" standalone="no"?>
<!DOCTYPE svg PUBLIC "-//W3C//DTD SVG 20010904//EN"
 "http://www.w3.org/TR/2001/REC-SVG-20010904/DTD/svg10.dtd">
<svg version="1.0" xmlns="http://www.w3.org/2000/svg"
 width="512.000000pt" height="512.000000pt" viewBox="0 0 512.000000 512.000000"
 preserveAspectRatio="xMidYMid meet">

<g transform="translate(0.000000,512.000000) scale(0.100000,-0.100000)"
fill="#000000" stroke="none">
<path d="M2440 5074 c-19 -2 -78 -9 -130 -15 -305 -34 -638 -139 -905 -286
-111 -61 -298 -184 -360 -237 l-39 -33 44 -8 c25 -4 103 -34 174 -67 122 -56
169 -73 406 -147 52 -16 129 -42 170 -57 71 -26 87 -28 315 -34 318 -10 441
-35 664 -137 179 -81 389 -256 520 -432 51 -69 147 -245 186 -341 8 -19 30
-31 105 -58 94 -33 97 -34 340 -42 223 -7 253 -10 335 -34 169 -51 309 -132
438 -255 195 -186 299 -400 326 -666 6 -59 11 -145 12 -189 l1 -81 14 55 c7
30 23 118 36 195 28 185 31 511 4 690 -83 571 -321 1051 -716 1445 -465 466
-1064 721 -1725 734 -99 3 -196 2 -215 0z"/>
<path d="M835 4250 c-44 -17 -113 -42 -152 -56 -85 -30 -91 -46 -39 -92 73
-64 139 -52 219 41 77 89 89 108 75 124 -13 17 -9 17 -103 -17z"/>
<path d="M439 3764 c-64 -19 -70 -29 -59 -95 6 -30 13 -72 17 -93 l6 -40 -32
23 c-18 13 -35 30 -38 38 -5 12 -8 12 -22 0 -9 -8 -34 -20 -56 -27 -139 -43
-282 -209 -237 -276 13 -20 54 -36 78 -30 13 4 42 31 64 60 67 92 79 89 46
-10 -31 -90 -72 -272 -93 -411 -22 -149 -22 -527 0 -676 60 -393 186 -729 395
-1048 l49 -75 -38 -54 c-44 -60 -49 -100 -19 -130 39 -39 89 -24 132 40 l16
25 38 -45 c322 -380 768 -665 1249 -798 888 -246 1841 11 2481 669 102 106
194 216 253 302 52 76 30 54 -41 -41 -91 -121 -218 -262 -321 -356 l-87 -78
-93 15 c-51 9 -131 28 -178 42 -119 37 -309 134 -410 210 -87 65 -265 242
-296 296 l-17 29 -511 0 c-297 0 -537 -4 -575 -10 -90 -14 -175 -58 -261 -136
-105 -94 -246 -158 -559 -255 -167 -52 -270 -49 -355 10 -69 47 -58 81 36 107
32 9 59 19 59 22 0 3 -7 41 -16 84 -9 44 -13 82 -10 85 3 3 35 -24 71 -60 35
-37 69 -67 75 -67 29 0 224 115 294 173 l30 24 -17 44 c-22 59 -69 113 -123
145 l-44 26 -192 -4 c-152 -4 -203 -8 -241 -22 l-48 -18 7 -47 c3 -25 12 -67
19 -93 23 -82 -4 -72 -90 31 l-59 71 -68 -7 c-89 -8 -109 5 -131 84 -21 74
-21 104 -2 151 24 55 51 79 148 129 110 57 184 124 254 229 89 136 127 156
351 185 238 31 277 27 447 -53 77 -37 181 -78 230 -93 119 -35 243 -76 335
-110 70 -25 89 -28 266 -33 106 -2 247 -1 315 3 l124 7 -7 81 c-3 45 -7 150
-7 233 l-1 152 -120 -44 c-314 -113 -421 -127 -536 -68 -51 26 -59 34 -62 61
-4 37 7 44 86 63 48 11 53 15 47 34 -14 47 -28 147 -21 153 4 4 34 -23 67 -60
33 -37 67 -67 74 -67 23 0 161 75 227 124 110 80 102 66 75 128 -25 57 -71
108 -122 135 -47 26 -389 25 -462 0 -61 -22 -63 -28 -36 -138 9 -38 14 -72 10
-75 -10 -11 -55 29 -103 93 l-47 61 -74 -5 c-86 -7 -103 3 -127 75 -25 73 -21
140 13 193 24 38 44 53 125 94 120 61 190 122 250 219 26 42 66 91 88 111 47
40 131 75 186 76 20 1 48 4 61 8 22 6 20 8 -25 32 -139 75 -231 89 -569 89
-374 0 -418 -11 -557 -135 -96 -85 -223 -148 -453 -224 -227 -75 -291 -88
-366 -72 -75 16 -149 63 -149 95 0 31 15 42 75 57 28 6 53 15 58 19 4 3 0 37
-8 75 -27 114 -20 118 60 36 l70 -71 63 30 c70 33 180 103 230 146 l33 29 -20
47 c-24 57 -80 121 -125 142 -46 22 -377 22 -447 0z"/>
<path d="M2560 3217 c-121 -43 -146 -56 -148 -74 -4 -28 55 -73 105 -80 58 -7
86 9 158 93 63 75 76 106 45 111 -8 1 -80 -21 -160 -50z"/>
<path d="M3573 2239 c2 -195 9 -367 14 -384 l9 -30 420 0 419 0 3 167 c3 181
-9 261 -49 341 -51 101 -152 187 -267 229 -51 19 -85 22 -305 26 l-249 4 5
-353z"/>
<path d="M1231 1857 c-80 -29 -146 -58 -149 -65 -5 -16 33 -59 70 -78 33 -17
78 -18 113 -2 35 16 156 165 148 183 -8 22 -24 19 -182 -38z"/>
<path d="M4961 1682 c-58 -153 -145 -328 -230 -462 -9 -13 -11 -21 -4 -17 17
10 103 164 162 288 51 106 114 269 108 275 -2 2 -18 -35 -36 -84z"/>
</g>
</svg>
